# xmcd
# 
# Track frame offsets:
#     183
#     12635
#     23943
#     33930
#     44055
#     56775
#     67808
#     82925
#     96688
#     106795
#     120508
#     131150
#     143763
#     154795
# 
# Disc length: 2203
# 
# Revision: 1
# Processed by: cddbd v1.5.2PL0 Copyright (c) Steve Scherf et al.
# Submitted via: fre:ac v1.0.17
# 
DISCID=bf08990e
DTITLE=Patsy Cline - Always
DYEAR=1988
DGENRE=Country
TTITLE0=Always
TTITLE1=Half as Much
TTITLE2=Have You Ever Been Lonely
TTITLE3=Thats How a Heartache Begins
TTITLE4=Bill Bailey
TTITLE5=Love Letters in the Sand
TTITLE6=Wayward Wind
TTITLE7=You Belong to Me
TTITLE8=Love You So Much it Hurts
TTITLE9=Thats My Desire
TTITLE10=I Can See an Angel
TTITLE11=You Made Me Love You
TTITLE12=Crazy Arms
TTITLE13=Your Cheatin Heart
EXTD=
EXTT0=
EXTT1=
EXTT2=
EXTT3=
EXTT4=
EXTT5=
EXTT6=
EXTT7=
EXTT8=
EXTT9=
EXTT10=
EXTT11=
EXTT12=
EXTT13=
PLAYORDER=
